<svg width="80" height="80" viewBox="0 0 80 80" fill="none" xmlns="http://www.w3.org/2000/svg">
<circle cx="40.5" cy="40.5" r="23" stroke="#0091FA"/>
<circle cx="40.5" cy="40.5" r="30" stroke="#0091FA" stroke-opacity="0.5"/>
<circle cx="40" cy="40" r="39.5" stroke="#0091FA" stroke-opacity="0.2"/>
<path d="M49.8881 45.9201V48.9201C49.8892 49.1986 49.8322 49.4743 49.7206 49.7294C49.6091 49.9846 49.4454 50.2137 49.2402 50.402C49.035 50.5902 48.7927 50.7336 48.5289 50.8228C48.265 50.912 47.9855 50.9452 47.7081 50.9201C44.631 50.5857 41.6751 49.5342 39.0781 47.8501C36.6619 46.3148 34.6135 44.2663 33.0781 41.8501C31.3881 39.2413 30.3364 36.2711 30.0081 33.1801C29.9831 32.9036 30.016 32.6249 30.1046 32.3617C30.1932 32.0986 30.3357 31.8568 30.5229 31.6517C30.7101 31.4466 30.9379 31.2828 31.1919 31.1706C31.4459 31.0584 31.7205 31.0004 31.9981 31.0001H34.9981C35.4834 30.9953 35.9539 31.1672 36.3219 31.4836C36.6898 31.8001 36.9302 32.2395 36.9981 32.7201C37.1247 33.6802 37.3596 34.6228 37.6981 35.5301C37.8327 35.888 37.8618 36.277 37.782 36.651C37.7023 37.0249 37.517 37.3682 37.2481 37.6401L35.9781 38.9101C37.4017 41.4136 39.4746 43.4865 41.9781 44.9101L43.2481 43.6401C43.52 43.3712 43.8633 43.1859 44.2372 43.1062C44.6112 43.0264 45.0002 43.0556 45.3581 43.1901C46.2654 43.5286 47.2081 43.7635 48.1681 43.8901C48.6539 43.9586 49.0975 44.2033 49.4146 44.5776C49.7318 44.9519 49.9003 45.4297 49.8881 45.9201Z" stroke="#0091FA" stroke-width="2" stroke-linecap="round" stroke-linejoin="round"/>
</svg>
