<svg width="20" height="20" viewBox="0 0 20 20" fill="none" xmlns="http://www.w3.org/2000/svg">
<path d="M14.332 1.6665H5.9987C3.69751 1.6665 1.83203 3.53198 1.83203 5.83317V14.1665C1.83203 16.4677 3.69751 18.3332 5.9987 18.3332H14.332C16.6332 18.3332 18.4987 16.4677 18.4987 14.1665V5.83317C18.4987 3.53198 16.6332 1.6665 14.332 1.6665Z" stroke="white" stroke-width="2" stroke-linecap="round" stroke-linejoin="round"/>
<path d="M13.4978 9.47525C13.6006 10.1688 13.4822 10.8771 13.1593 11.4994C12.8364 12.1218 12.3254 12.6264 11.6992 12.9416C11.0729 13.2569 10.3632 13.3666 9.67096 13.2552C8.97874 13.1438 8.33927 12.817 7.8435 12.3212C7.34773 11.8255 7.02091 11.186 6.90953 10.4938C6.79814 9.80155 6.90786 9.09183 7.22307 8.46556C7.53829 7.8393 8.04296 7.32837 8.66529 7.00545C9.28762 6.68254 9.99593 6.56407 10.6895 6.66692C11.3969 6.77182 12.0518 7.10147 12.5575 7.60717C13.0633 8.11288 13.3929 8.76782 13.4978 9.47525Z" stroke="white" stroke-width="2" stroke-linecap="round" stroke-linejoin="round"/>
<path d="M14.75 5.41602H14.76" stroke="white" stroke-width="2" stroke-linecap="round" stroke-linejoin="round"/>
</svg>
