<svg width="20" height="19" viewBox="0 0 20 19" fill="none" xmlns="http://www.w3.org/2000/svg">
<path d="M13.5 6.6665C14.8261 6.6665 16.0979 7.19329 17.0355 8.13097C17.9732 9.06865 18.5 10.3404 18.5 11.6665V17.4998H15.1667V11.6665C15.1667 11.2245 14.9911 10.8006 14.6785 10.488C14.366 10.1754 13.942 9.99984 13.5 9.99984C13.058 9.99984 12.6341 10.1754 12.3215 10.488C12.0089 10.8006 11.8333 11.2245 11.8333 11.6665V17.4998H8.5V11.6665C8.5 10.3404 9.02678 9.06865 9.96447 8.13097C10.9021 7.19329 12.1739 6.6665 13.5 6.6665V6.6665Z" stroke="white" stroke-width="2" stroke-linecap="round" stroke-linejoin="round"/>
<path d="M5.16536 7.5H1.83203V17.5H5.16536V7.5Z" stroke="white" stroke-width="2" stroke-linecap="round" stroke-linejoin="round"/>
<path d="M3.4987 4.99984C4.41917 4.99984 5.16536 4.25365 5.16536 3.33317C5.16536 2.4127 4.41917 1.6665 3.4987 1.6665C2.57822 1.6665 1.83203 2.4127 1.83203 3.33317C1.83203 4.25365 2.57822 4.99984 3.4987 4.99984Z" stroke="white" stroke-width="2" stroke-linecap="round" stroke-linejoin="round"/>
</svg>
