<svg width="39" height="39" viewBox="0 0 39 39" fill="none" xmlns="http://www.w3.org/2000/svg">
<rect width="39" height="39" rx="3" fill="#141926"/>
<path d="M21.8007 17.1992C22.9146 17.1992 23.9828 17.6417 24.7704 18.4293C25.558 19.2169 26.0004 20.2851 26.0004 21.3989V26.2985H23.2006V21.3989C23.2006 21.0276 23.0531 20.6715 22.7906 20.409C22.5281 20.1465 22.172 19.999 21.8007 19.999C21.4295 19.999 21.0734 20.1465 20.8109 20.409C20.5483 20.6715 20.4009 21.0276 20.4009 21.3989V26.2985H17.6011V21.3989C17.6011 20.2851 18.0435 19.2169 18.8311 18.4293C19.6187 17.6417 20.6869 17.1992 21.8007 17.1992V17.1992Z" stroke="white" stroke-width="2" stroke-linecap="round" stroke-linejoin="round"/>
<path d="M14.7998 17.8994H12V26.2988H14.7998V17.8994Z" stroke="white" stroke-width="2" stroke-linecap="round" stroke-linejoin="round"/>
<path d="M13.3999 15.7998C14.173 15.7998 14.7998 15.173 14.7998 14.3999C14.7998 13.6268 14.173 13 13.3999 13C12.6268 13 12 13.6268 12 14.3999C12 15.173 12.6268 15.7998 13.3999 15.7998Z" stroke="white" stroke-width="2" stroke-linecap="round" stroke-linejoin="round"/>
</svg>
