<svg width="39" height="39" viewBox="0 0 39 39" fill="none" xmlns="http://www.w3.org/2000/svg">
<rect width="39" height="39" rx="3" fill="#141926"/>
<path d="M23.5 12H16.5C14.567 12 13 13.567 13 15.5V22.5C13 24.433 14.567 26 16.5 26H23.5C25.433 26 27 24.433 27 22.5V15.5C27 13.567 25.433 12 23.5 12Z" stroke="white" stroke-width="2" stroke-linecap="round" stroke-linejoin="round"/>
<path d="M21.9784 18.7066C22.0401 19.1228 21.969 19.5477 21.7752 19.9211C21.5815 20.2945 21.2749 20.5973 20.8992 20.7865C20.5234 20.9756 20.0976 21.0414 19.6823 20.9746C19.2669 20.9078 18.8832 20.7117 18.5858 20.4142C18.2883 20.1168 18.0922 19.7331 18.0254 19.3177C17.9586 18.9024 18.0244 18.4766 18.2135 18.1008C18.4027 17.7251 18.7055 17.4185 19.0789 17.2248C19.4523 17.031 19.8772 16.9599 20.2934 17.0216C20.7178 17.0846 21.1108 17.2824 21.4142 17.5858C21.7176 17.8892 21.9154 18.2822 21.9784 18.7066Z" stroke="white" stroke-width="2" stroke-linecap="round" stroke-linejoin="round"/>
</svg>
