<svg width="39" height="39" viewBox="0 0 39 39" fill="none" xmlns="http://www.w3.org/2000/svg">
<rect width="39" height="39" rx="3" fill="#00B0FB"/>
<path d="M21.8008 17.1997C22.9146 17.1997 23.9828 17.6422 24.7704 18.4298C25.558 19.2174 26.0004 20.2856 26.0004 21.3994V26.299H23.2007V21.3994C23.2007 21.0281 23.0532 20.672 22.7906 20.4095C22.5281 20.147 22.1721 19.9995 21.8008 19.9995C21.4295 19.9995 21.0734 20.147 20.8109 20.4095C20.5484 20.672 20.4009 21.0281 20.4009 21.3994V26.299H17.6011V21.3994C17.6011 20.2856 18.0436 19.2174 18.8312 18.4298C19.6188 17.6422 20.687 17.1997 21.8008 17.1997V17.1997Z" stroke="white" stroke-width="2" stroke-linecap="round" stroke-linejoin="round"/>
<path d="M14.7998 17.8999H12V26.2992H14.7998V17.8999Z" stroke="white" stroke-width="2" stroke-linecap="round" stroke-linejoin="round"/>
<path d="M13.3999 15.7998C14.173 15.7998 14.7998 15.173 14.7998 14.3999C14.7998 13.6268 14.173 13 13.3999 13C12.6268 13 12 13.6268 12 14.3999C12 15.173 12.6268 15.7998 13.3999 15.7998Z" stroke="white" stroke-width="2" stroke-linecap="round" stroke-linejoin="round"/>
</svg>
